<svg xmlns="http://www.w3.org/2000/svg" viewBox="0 0 100 100" fill="none" role="img" aria-label="ISC TESCHA logo">
  <title>Ingeniería en Sistemas Computacionales · TESCHA</title>

  <!-- Gear body: 8 teeth polygon with center hole (evenodd) -->
  <path
    fill-rule="evenodd"
    fill="currentColor"
    d="M50 30
       L54.97 38 L64.1 35.9 L62 45
       L70 50
       L62 55 L64.1 64.1 L54.97 62
       L50 70
       L45.03 62 L35.9 64.1 L38 55
       L30 50
       L38 45 L35.9 35.9 L45.03 38 Z
       M43 50 A7 7 0 0 0 57 50 A7 7 0 0 0 43 50 Z"
  />

  <!-- Signal / connectivity arcs (three growing arcs to the right) -->
  <path
    d="M74 40 A26 26 0 0 1 74 60"
    stroke="currentColor"
    stroke-width="3.5"
    stroke-linecap="round"
  />
  <path
    d="M80 36 A33.1 33.1 0 0 1 80 64"
    stroke="currentColor"
    stroke-width="2.5"
    stroke-linecap="round"
    opacity="0.65"
  />
  <path
    d="M86 32 A40.2 40.2 0 0 1 86 68"
    stroke="currentColor"
    stroke-width="2"
    stroke-linecap="round"
    opacity="0.38"
  />
</svg>
